<?xml version="1.0" standalone="no"?><!DOCTYPE svg PUBLIC "-//W3C//DTD SVG 1.1//EN" "http://www.w3.org/Graphics/SVG/1.1/DTD/svg11.dtd"><svg class="icon" width="200px" height="200.00px" viewBox="0 0 1024 1024" version="1.1" xmlns="http://www.w3.org/2000/svg"><path fill="#000000" d="M339.062446 508.674639c0.496165 93.912412 76.272165 169.234474 169.677856 168.674969 93.21567-0.570062 169.308371-77.422845 168.738309-170.427381-0.591175-93.564041-76.514969-168.389938-170.448495-167.957114-94.693608 0.422268-168.442722 74.952577-167.957113 169.709526m-84.92866-0.591175c-0.316701-140.19299 111.288742-252.653526 252.062351-254.004784 140.404124-1.340701 255.883876 112.925031 256.03167 253.360825 0.158351 140.108536-115.553649 255.514392-255.387712 254.733196-139.728495-0.802309-252.389608-114.075711-252.706309-254.089237M283.8509 243.163052c-7.991423 10.071093-14.842722 26.919588-26.159505 30.825567-13.512577 4.644948-34.87934 3.610392-45.710516-4.497155-24.322639-18.220866-45.319918-41.382268-65.609897-64.374763-15.26499-17.28132-14.346557-37.655753 1.351258-54.947629 14.737155-16.225649 35.174928-21.47233 51.960082-7.336907 26.708454 22.49633 50.482144 48.571381 74.53031 74.044701 4.877196 5.172784 5.468371 14.388784 9.638268 26.286186M281.201168 770.354144c-1.024 32.081814-76.314392 110.243629-100.235876 107.741691-13.713155-1.446268-31.817897-10.356124-37.898557-21.430103-6.091216-11.084536-5.267794-33.433072 2.354144-43.124124a409.177732 409.177732 0 0 1 70.62433-70.318185c9.511588-7.368577 31.152825-6.365691 43.398598-0.770639 11.211216 5.130557 17.217979 21.620124 21.757361 27.90136M842.310941 132.908866c9.764948 8.044206 26.381196 15.45501 31.353402 27.61633 4.951093 12.140206 3.409814 33.063588-4.370474 43.07134-19.234309 24.744907-42.691299 46.555052-66.338309 67.404536-16.373443 14.46268-36.452289 13.132536-53.047423-0.897319-16.869608-14.251546-21.53567-35.723876-8.28701-51.938969 22.59134-27.648 49.637608-51.727835 75.585979-76.504413 4.560495-4.328247 12.921402-4.697732 25.103835-8.751505M767.770075 735.559258c36.747876-0.422268 114.519093 75.818227 110.592 102.642804-1.889649 12.847505-11.485691 29.769897-22.253526 34.72099-11.907959 5.457814-33.411959 4.813856-43.219134-2.81864a390.101773 390.101773 0 0 1-68.470763-68.692453c-7.600825-9.828289-7.537485-30.931134-2.523051-43.525279 4.507711-11.32734 20.553897-18.073072 25.874474-22.327422"  /><path fill="#000000" d="M932.190694 466.194474c14.916619 0 29.896577-0.865649 44.739299 0.200578 23.67868 1.710186 37.106804 16.162309 38.679752 38.94367 1.625732 23.245856-11.39068 40.89666-33.865897 43.060783-33.000247 3.156454-66.644454 2.871423-99.750268 0.411711C858.958859 547.101031 844.675642 526.019299 847.388714 503.755216 850.18624 480.583258 864.026075 467.535175 887.440838 466.215588c14.884948-0.844536 29.833237-0.158351 44.760412-0.158351v0.137237z"  /><path fill="#000000" d="M466.481828 83.925773c0-15.782268-1.161237-31.670103 0.274474-47.325691 2.07967-22.454103 16.679588-34.868784 38.204701-36.441731 21.662351-1.583505 40.558845 9.131546 42.501278 30.772783a581.146392 581.146392 0 0 1-0.22169 107.224412c-2.07967 21.59901-21.018392 31.817897-42.91299 29.981031-21.905155-1.826309-35.639423-14.673814-37.645196-36.874556-1.425155-15.666144-0.285031-31.543423-0.285031-47.336248h0.084454z"  /><path fill="#000000" d="M84.930982 466.131134c14.906062 0 29.875464-0.844536 44.707629 0.200577 22.169072 1.562392 35.74499 14.30433 38.257485 36.262268 2.639175 23.066392-7.716948 42.691299-30.62499 44.86598a555.841979 555.841979 0 0 1-107.171629-0.422268C8.500467 544.884124-1.792317 525.512577 0.26624 503.93468 2.367024 482.472907 15.140632 468.284701 37.605292 466.542845 53.281993 465.318268 69.148714 466.289485 84.930982 466.289485V466.131134z"  /><path fill="#000000" d="M466.09123 929.939794c0-14.040412-0.738969-28.123052 0.168907-42.100124 1.562392-24.069278 17.513567-40.199918 39.714309-40.727752 23.710351-0.548948 40.643299 11.981856 42.680742 34.372618 3.00866 33.021361 2.94532 66.718351-0.052783 99.729155-2.048 22.528-19.39266 34.858227-42.722969 34.541525-21.852371-0.285031-38.130804-17.249649-39.619299-41.065567-0.950103-14.853278-0.179464-29.82268-0.168907-44.739298"  /></svg>