<?xml version="1.0" standalone="no"?><!DOCTYPE svg PUBLIC "-//W3C//DTD SVG 1.1//EN" "http://www.w3.org/Graphics/SVG/1.1/DTD/svg11.dtd"><svg class="icon" width="200px" height="200.00px" viewBox="0 0 1024 1024" version="1.1" xmlns="http://www.w3.org/2000/svg"><path fill="#000000" d="M512 960c-60.5 0-119.2-11.9-174.4-35.2-53.4-22.6-101.3-54.9-142.4-96-41.1-41.2-73.5-89.1-96-142.4C75.8 631.1 64 572.4 64 512s11.9-119.2 35.2-174.4c22.6-53.4 54.9-101.3 96-142.4s89.1-73.5 142.4-96C392.9 75.8 451.6 64 512 64c60.5 0 119.2 11.9 174.4 35.2 53.4 22.6 101.3 54.9 142.4 96 41.2 41.1 73.5 89.1 96 142.4 23.4 55.3 35.2 114 35.2 174.4s-11.7 119-35.1 174.3c-22.6 53.4-54.9 101.3-96 142.4-41.1 41.1-89.1 73.5-142.4 96-55.3 23.4-114 35.3-174.5 35.3z m0-856.3c-225 0-408.1 183.1-408.1 408.1S287 920 512 920c225 0 408.1-183.1 408.1-408.1S737 103.7 512 103.7z"  /><path fill="#000000" d="M333.8 709c-5.1 0-10.2-2-14.1-5.9s-5.9-9-5.9-14.1 2-10.2 5.9-14.1l353.6-353.6c7.8-7.8 20.5-7.8 28.3 0 3.9 3.9 5.9 9 5.9 14.1s-2 10.2-5.9 14.1L347.9 703.1c-3.9 3.9-9 5.9-14.1 5.9z"  /><path fill="#000000" d="M687.4 709c-5.1 0-10.2-2-14.1-5.9L319.7 349.6c-3.9-3.9-5.9-9-5.9-14.1s2-10.2 5.9-14.1c7.8-7.8 20.5-7.8 28.3 0L701.6 675c3.9 3.9 5.9 9 5.9 14.1s-2 10.2-5.9 14.1c-4 3.8-9.1 5.8-14.2 5.8z"  /></svg>