<?xml version="1.0" standalone="no"?><!DOCTYPE svg PUBLIC "-//W3C//DTD SVG 1.1//EN" "http://www.w3.org/Graphics/SVG/1.1/DTD/svg11.dtd"><svg t="1770188852434" class="icon" viewBox="0 0 1024 1024" version="1.1" xmlns="http://www.w3.org/2000/svg" p-id="6538" xmlns:xlink="http://www.w3.org/1999/xlink" width="200" height="200"><path d="M624.32 484.48a32 32 0 0 1 0 55.04l-160 96A32 32 0 0 1 416 608V416a32 32 0 0 1 48.32-27.52zM480 472.64v78.72L545.92 512z" p-id="6539"></path><path d="M896 768V256H128v512z m0 64H128a64 64 0 0 1-64-64V256a64 64 0 0 1 64-64h768a64 64 0 0 1 64 64v512a64 64 0 0 1-64 64z" p-id="6540"></path><path d="M192 224a32 32 0 0 1 64 0v544a32 32 0 0 1-64 0z" p-id="6541"></path><path d="M224 384a32 32 0 0 1 0 64H96a32 32 0 0 1 0-64z m0 192a32 32 0 0 1 0 64H96a32 32 0 0 1 0-64z m544-352a32 32 0 0 1 64 0v544a32 32 0 0 1-64 0z" p-id="6542"></path><path d="M800 448a32 32 0 0 1 0-64h128a32 32 0 0 1 0 64z m0 192a32 32 0 0 1 0-64h128a32 32 0 0 1 0 64z" p-id="6543"></path></svg>